<?xml version="1.0" encoding="utf-8"?>
<!-- Generator: Adobe Illustrator 24.1.1, SVG Export Plug-In . SVG Version: 6.00 Build 0)  -->
<svg version="1.1" id="Layer_1" xmlns="http://www.w3.org/2000/svg" xmlns:xlink="http://www.w3.org/1999/xlink" x="0px" y="0px"
	 viewBox="0 0 512 512" style="enable-background:new 0 0 512 512;" xml:space="preserve">
<g>
	<path d="M67.6,161.4v186.7h21.8v-135c0.2-8.5-0.2-17.1-1.1-25.6h0.8c1.6,4.1,3.6,8,5.9,11.7l96,148.8h26.8V161.4h-21.7v131.2
		c-0.3,9.2,0.3,18.3,1.3,27.4h-0.5c-1.2-2.3-3.7-6.4-7.6-12.5L95.9,161.4L67.6,161.4z M266.2,161.4v186.7h99.2l0.1-20.5h-77v-64.8
		H356v-19.7h-67.4v-62h72.3v-19.7L266.2,161.4z M382.2,161.4v19.7h53.7v166.9h21.8V181.1H512v-19.7H382.2z M13.9,321.4
		c-3.7,0.1-7.2,1.7-9.7,4.4c-2.7,2.7-4.2,6.4-4.2,10.3c-0.1,3.8,1.5,7.5,4.2,10.3c2.7,2.7,6.4,4.3,10.2,4.3c3.9,0,7.6-1.5,10.3-4.3
		c2.7-2.7,4.3-6.4,4.3-10.3c0-3.8-1.6-7.6-4.3-10.3c-2.7-2.8-6.3-4.4-10.3-4.4H13.9L13.9,321.4z"/>
</g>
</svg>
